<?xml version="1.0" encoding="UTF-8" standalone="no"?>
<svg
   xmlns:dc="http://purl.org/dc/elements/1.1/"
   xmlns:cc="http://creativecommons.org/ns#"
   xmlns:rdf="http://www.w3.org/1999/02/22-rdf-syntax-ns#"
   xmlns:svg="http://www.w3.org/2000/svg"
   xmlns="http://www.w3.org/2000/svg"
   xmlns:sodipodi="http://sodipodi.sourceforge.net/DTD/sodipodi-0.dtd"
   xmlns:inkscape="http://www.inkscape.org/namespaces/inkscape"
   version="1.1"
   viewBox="0.0 0.0 960.0 720.0"
   fill="none"
   stroke="none"
   stroke-linecap="square"
   stroke-miterlimit="10"
   id="svg75"
   sodipodi:docname="gravity.svg"
   inkscape:version="1.0.1 (0767f8302a, 2020-10-17)">
  <metadata
     id="metadata81">
    <rdf:RDF>
      <cc:Work
         rdf:about="">
        <dc:format>image/svg+xml</dc:format>
        <dc:type
           rdf:resource="http://purl.org/dc/dcmitype/StillImage" />
      </cc:Work>
    </rdf:RDF>
  </metadata>
  <defs
     id="defs79" />
  <sodipodi:namedview
     pagecolor="#ffffff"
     bordercolor="#666666"
     borderopacity="1"
     objecttolerance="10"
     gridtolerance="10"
     guidetolerance="10"
     inkscape:pageopacity="0"
     inkscape:pageshadow="2"
     inkscape:window-width="1600"
     inkscape:window-height="876"
     id="namedview77"
     showgrid="false"
     inkscape:zoom="1.2208333"
     inkscape:cx="400.8441"
     inkscape:cy="153.24564"
     inkscape:window-x="0"
     inkscape:window-y="24"
     inkscape:window-maximized="1"
     inkscape:current-layer="g73"
     inkscape:document-rotation="0" />
  <clipPath
     id="p.0">
    <path
       d="m0 0l960.0 0l0 720.0l-960.0 0l0 -720.0z"
       clip-rule="nonzero"
       id="path2" />
  </clipPath>
  <g
     clip-path="url(#p.0)"
     id="g73">
    <path
       fill="#000000"
       fill-opacity="0.0"
       d="m0 0l960.0 0l0 720.0l-960.0 0z"
       fill-rule="evenodd"
       id="path5" />
    <flowRoot
       xml:space="preserve"
       id="flowRoot888"
       style="font-style:normal;font-weight:normal;font-size:40px;line-height:1.25;font-family:'DejaVu Sans';letter-spacing:0px;word-spacing:0px;fill:#000000;fill-opacity:1;stroke:none;-inkscape-font-specification:'DejaVu Sans';font-stretch:normal;font-variant:normal;"><flowRegion
         id="flowRegion890"
         style="-inkscape-font-specification:'DejaVu Sans';font-family:'DejaVu Sans';font-weight:normal;font-style:normal;font-stretch:normal;font-variant:normal;"><rect
           id="rect892"
           width="269.48807"
           height="44.232082"
           x="719.18091"
           y="-79.453926"
           style="-inkscape-font-specification:'DejaVu Sans';font-family:'DejaVu Sans';font-weight:normal;font-style:normal;font-stretch:normal;font-variant:normal;" /></flowRegion><flowPara
         id="flowPara894">Recipe B</flowPara></flowRoot>
    <g
       id="g231"
       inkscape:export-xdpi="96"
       inkscape:export-ydpi="96">
      <text
         xml:space="preserve"
         style="font-style:normal;font-variant:normal;font-weight:normal;font-stretch:normal;font-size:40px;line-height:1.25;font-family:'DejaVu Sans';-inkscape-font-specification:'DejaVu Sans';letter-spacing:0px;word-spacing:0px;fill:#000000;fill-opacity:1;stroke:none"
         x="665.65137"
         y="112.97633"
         id="text902"><tspan
           sodipodi:role="line"
           id="tspan900"
           x="665.65137"
           y="112.97633"
           style="font-style:normal;font-variant:normal;font-weight:bold;font-stretch:normal;font-size:18.6667px;font-family:Loma;-inkscape-font-specification:Loma">Heavy</tspan></text>
      <path
         fill="#000000"
         fill-opacity="0"
         d="m 397.7895,21.685196 v 0 c 0,-4.328491 3.50894,-7.837427 7.83743,-7.837427 h 156.26212 c 2.07862,0 4.07215,0.825727 5.54193,2.29553 1.46979,1.469801 2.29554,3.463282 2.29554,5.541897 v 31.348766 c 0,4.328495 -3.50898,7.837429 -7.83747,7.837429 H 405.62693 c -4.32849,0 -7.83743,-3.508934 -7.83743,-7.837429 z"
         fill-rule="evenodd"
         id="path7" />
      <path
         stroke="#000000"
         stroke-width="1"
         stroke-linejoin="round"
         stroke-linecap="butt"
         d="m 397.7895,21.685196 v 0 c 0,-4.328491 3.50894,-7.837427 7.83743,-7.837427 h 156.26212 c 2.07862,0 4.07215,0.825727 5.54193,2.29553 1.46979,1.469801 2.29554,3.463282 2.29554,5.541897 v 31.348766 c 0,4.328495 -3.50898,7.837429 -7.83747,7.837429 H 405.62693 c -4.32849,0 -7.83743,-3.508934 -7.83743,-7.837429 z"
         fill-rule="evenodd"
         id="path9" />
      <path
         fill="#000000"
         fill-opacity="0"
         d="m 274.73044,152.0087 v 29.89922 H 171.04538 v 29.9088"
         fill-rule="evenodd"
         id="path13"
         style="stroke-width:1.14084" />
      <path
         stroke="#000000"
         stroke-width="1.14084"
         stroke-linejoin="round"
         stroke-linecap="butt"
         d="m 274.73044,152.0087 v 29.89922 H 171.04538 v 29.9088"
         fill-rule="evenodd"
         id="path15" />
      <path
         fill="#000000"
         fill-opacity="0"
         d="M 378.36502,211.79436 V 181.9013 H 274.74298 v -29.87397"
         fill-rule="evenodd"
         id="path17"
         style="stroke-width:1.14084" />
      <path
         stroke="#000000"
         stroke-width="1.14084"
         stroke-linejoin="round"
         stroke-linecap="butt"
         d="M 378.36502,211.79436 V 181.9013 H 274.74298 v -29.87397"
         fill-rule="evenodd"
         id="path19" />
      <path
         fill="#000000"
         fill-opacity="0"
         d="M 483.758,60.87139 V 75.839202 H 274.71863 v 14.953445"
         fill-rule="evenodd"
         id="path21" />
      <path
         stroke="#000000"
         stroke-width="1"
         stroke-linejoin="round"
         stroke-linecap="butt"
         d="M 483.758,60.87139 V 75.839202 H 274.71863 v 14.953445"
         fill-rule="evenodd"
         id="path23" />
      <path
         fill="#000000"
         fill-opacity="0"
         d="m 188.76192,101.00746 v 0 c 0,-5.633576 3.50894,-10.200491 7.83743,-10.200491 h 156.26216 c 2.07862,0 4.07209,1.074686 5.5419,2.98765 1.46979,1.912965 2.29554,4.507506 2.29554,7.212841 v 40.80076 c 0,5.63359 -3.50895,10.20048 -7.83744,10.20048 H 196.59935 c -4.32849,0 -7.83743,-4.56689 -7.83743,-10.20048 z"
         fill-rule="evenodd"
         id="path25"
         style="stroke-width:1.14084" />
      <path
         stroke="#000000"
         stroke-width="1.14084"
         stroke-linejoin="round"
         stroke-linecap="butt"
         d="m 188.76192,101.00746 v 0 c 0,-5.633576 3.50894,-10.200491 7.83743,-10.200491 h 156.26216 c 2.07862,0 4.07209,1.074686 5.5419,2.98765 1.46979,1.912965 2.29554,4.507506 2.29554,7.212841 v 40.80076 c 0,5.63359 -3.50895,10.20048 -7.83744,10.20048 H 196.59935 c -4.32849,0 -7.83743,-4.56689 -7.83743,-10.20048 z"
         fill-rule="evenodd"
         id="path27" />
      <path
         fill="#000000"
         fill-opacity="0"
         d="m 606.817,101.00746 v 0 c 0,-5.633576 3.50897,-10.200491 7.83746,-10.200491 h 156.26215 c 2.07862,0 4.07209,1.074686 5.54187,2.98765 1.46985,1.912965 2.29554,4.507506 2.29554,7.212841 v 40.80076 c 0,5.63359 -3.50892,10.20048 -7.83741,10.20048 H 614.65446 c -4.32849,0 -7.83746,-4.56689 -7.83746,-10.20048 z"
         fill-rule="evenodd"
         id="path31"
         style="stroke-width:1.14084" />
      <path
         stroke="#000000"
         stroke-width="1.14084"
         stroke-linejoin="round"
         stroke-linecap="butt"
         d="m 606.817,101.00746 v 0 c 0,-5.633576 3.50897,-10.200491 7.83746,-10.200491 h 156.26215 c 2.07862,0 4.07209,1.074686 5.54187,2.98765 1.46985,1.912965 2.29554,4.507506 2.29554,7.212841 v 40.80076 c 0,5.63359 -3.50892,10.20048 -7.83741,10.20048 H 614.65446 c -4.32849,0 -7.83746,-4.56689 -7.83746,-10.20048 z"
         fill-rule="evenodd"
         id="path33" />
      <path
         fill="#000000"
         fill-opacity="0"
         d="m 85.06748,222.00708 v 0 c 0,-5.63358 3.508942,-10.20049 7.837433,-10.20049 H 249.16706 c 2.07862,0 4.0721,1.0747 5.5419,2.98766 1.46981,1.91297 2.29552,4.50749 2.29552,7.21283 v 40.80076 c 0,5.63357 -3.50893,10.2005 -7.83742,10.2005 H 92.904913 c -4.328491,0 -7.837433,-4.56693 -7.837433,-10.2005 z"
         fill-rule="evenodd"
         id="path37"
         style="stroke-width:1.14084" />
      <path
         stroke="#000000"
         stroke-width="1.14084"
         stroke-linejoin="round"
         stroke-linecap="butt"
         d="m 85.06748,222.00708 v 0 c 0,-5.63358 3.508942,-10.20049 7.837433,-10.20049 H 249.16706 c 2.07862,0 4.0721,1.0747 5.5419,2.98766 1.46981,1.91297 2.29552,4.50749 2.29552,7.21283 v 40.80076 c 0,5.63357 -3.50893,10.2005 -7.83742,10.2005 H 92.904913 c -4.328491,0 -7.837433,-4.56693 -7.837433,-10.2005 z"
         fill-rule="evenodd"
         id="path39" />
      <path
         fill="#000000"
         fill-opacity="0"
         d="m 292.3965,221.99485 v 0 c 0,-5.63357 3.50894,-10.20049 7.83743,-10.20049 h 156.26215 c 2.07862,0 4.07209,1.07469 5.5419,2.98765 1.46979,1.91296 2.29554,4.50751 2.29554,7.21284 v 40.80077 c 0,5.63357 -3.50895,10.20048 -7.83744,10.20048 H 300.23393 c -4.32849,0 -7.83743,-4.56691 -7.83743,-10.20048 z"
         fill-rule="evenodd"
         id="path43"
         style="stroke-width:1.14084" />
      <path
         stroke="#000000"
         stroke-width="1.14084"
         stroke-linejoin="round"
         stroke-linecap="butt"
         d="m 292.3965,221.99485 v 0 c 0,-5.63357 3.50894,-10.20049 7.83743,-10.20049 h 156.26215 c 2.07862,0 4.07209,1.07469 5.5419,2.98765 1.46979,1.91296 2.29554,4.50751 2.29554,7.21284 v 40.80077 c 0,5.63357 -3.50895,10.20048 -7.83744,10.20048 H 300.23393 c -4.32849,0 -7.83743,-4.56691 -7.83743,-10.20048 z"
         fill-rule="evenodd"
         id="path45" />
      <path
         fill="#000000"
         fill-opacity="0"
         d="m 503.18707,222.00708 v 0 c 0,-5.63358 3.50894,-10.20049 7.83743,-10.20049 h 156.26218 c 2.07862,0 4.07209,1.0747 5.54187,2.98766 1.46979,1.91297 2.29554,4.50749 2.29554,7.21283 v 40.80076 c 0,5.63357 -3.50892,10.2005 -7.83741,10.2005 H 511.0245 c -4.32849,0 -7.83743,-4.56693 -7.83743,-10.2005 z"
         fill-rule="evenodd"
         id="path49"
         style="stroke-width:1.14084" />
      <path
         stroke="#000000"
         stroke-width="1.14084"
         stroke-linejoin="round"
         stroke-linecap="butt"
         d="m 503.18707,222.00708 v 0 c 0,-5.63358 3.50894,-10.20049 7.83743,-10.20049 h 156.26218 c 2.07862,0 4.07209,1.0747 5.54187,2.98766 1.46979,1.91297 2.29554,4.50749 2.29554,7.21283 v 40.80076 c 0,5.63357 -3.50892,10.2005 -7.83741,10.2005 H 511.0245 c -4.32849,0 -7.83743,-4.56693 -7.83743,-10.2005 z"
         fill-rule="evenodd"
         id="path51" />
      <path
         fill="#000000"
         fill-opacity="0"
         d="m 710.5161,191.61147 v 0 c 0,-4.32849 3.50891,-7.83743 7.8374,-7.83743 h 156.26215 c 2.07862,0 4.07215,0.82573 5.54193,2.29553 1.46979,1.4698 2.29554,3.46329 2.29554,5.5419 v 31.34877 c 0,4.32849 -3.50898,7.83742 -7.83747,7.83742 H 718.3535 c -4.32849,0 -7.8374,-3.50893 -7.8374,-7.83742 z"
         fill-rule="evenodd"
         id="path55" />
      <path
         stroke="#000000"
         stroke-width="1.14084"
         stroke-linejoin="round"
         stroke-linecap="butt"
         d="m 710.5161,222.00511 v 0 c 0,-5.63358 3.50891,-10.2005 7.8374,-10.2005 h 156.26215 c 2.07862,0 4.07215,1.0747 5.54193,2.98766 1.46979,1.91296 2.29554,4.50751 2.29554,7.21284 v 40.80076 c 0,5.63358 -3.50898,10.20049 -7.83747,10.20049 H 718.3535 c -4.32849,0 -7.8374,-4.56691 -7.8374,-10.20049 z"
         fill-rule="evenodd"
         id="path57" />
      <path
         fill="#000000"
         fill-opacity="0"
         d="m 692.7855,152.0087 v 29.89922 H 589.16349 v 29.9088"
         fill-rule="evenodd"
         id="path61"
         style="stroke-width:1.14084" />
      <path
         stroke="#000000"
         stroke-width="1.14084"
         stroke-linejoin="round"
         stroke-linecap="butt"
         d="m 692.7855,152.0087 v 29.89922 H 589.16349 v 29.9088"
         fill-rule="evenodd"
         id="path63" />
      <path
         fill="#000000"
         fill-opacity="0"
         d="M 796.4846,211.8046 V 181.90657 H 692.79954 v -29.90998"
         fill-rule="evenodd"
         id="path65"
         style="stroke-width:1.14084" />
      <path
         stroke="#000000"
         stroke-width="1.14084"
         stroke-linejoin="round"
         stroke-linecap="butt"
         d="M 796.4846,211.8046 V 181.90657 H 692.79954 v -29.90998"
         fill-rule="evenodd"
         id="path67" />
      <path
         fill="#000000"
         fill-opacity="0"
         d="M 692.7855,90.80697 V 75.839158 H 483.74616 V 60.885705"
         fill-rule="evenodd"
         id="path69" />
      <path
         stroke="#000000"
         stroke-width="1"
         stroke-linejoin="round"
         stroke-linecap="butt"
         d="M 692.7855,90.80697 V 75.839158 H 483.74616 V 60.885705"
         fill-rule="evenodd"
         id="path71" />
      <text
         xml:space="preserve"
         style="font-style:normal;font-variant:normal;font-weight:normal;font-stretch:normal;font-size:40px;line-height:1.25;font-family:'DejaVu Sans';-inkscape-font-specification:'DejaVu Sans';letter-spacing:0px;word-spacing:0px;fill:#000000;fill-opacity:1;stroke:none"
         x="454.31784"
         y="42.108288"
         id="text902-3"><tspan
           id="tspan900-6"
           x="454.31784"
           y="42.108288"
           style="font-style:normal;font-variant:normal;font-weight:bold;font-stretch:normal;font-size:18.6667px;font-family:Loma;-inkscape-font-specification:Loma"
           sodipodi:role="line">Gravity</tspan></text>
      <text
         xml:space="preserve"
         style="font-style:normal;font-variant:normal;font-weight:normal;font-stretch:normal;font-size:40px;line-height:1.25;font-family:'DejaVu Sans';-inkscape-font-specification:'DejaVu Sans';letter-spacing:0px;word-spacing:0px;fill:#000000;fill-opacity:1;stroke:none"
         x="253.858"
         y="113.04926"
         id="text902-3-3"><tspan
           id="tspan900-6-5"
           x="253.858"
           y="113.04926"
           style="font-style:normal;font-variant:normal;font-weight:bold;font-stretch:normal;font-size:18.6667px;font-family:Loma;-inkscape-font-specification:Loma"
           sodipodi:role="line">Light</tspan></text>
      <text
         xml:space="preserve"
         style="font-style:normal;font-variant:normal;font-weight:normal;font-stretch:normal;font-size:40px;line-height:1.25;font-family:'DejaVu Sans';-inkscape-font-specification:'DejaVu Sans';letter-spacing:0px;word-spacing:0px;fill:#000000;fill-opacity:1;stroke:none"
         x="148.34975"
         y="233.93648"
         id="text902-3-3-6"><tspan
           id="tspan900-6-5-2"
           x="148.34975"
           y="233.93648"
           style="font-style:normal;font-variant:normal;font-weight:bold;font-stretch:normal;font-size:18.6667px;font-family:Loma;-inkscape-font-specification:Loma"
           sodipodi:role="line">Short</tspan></text>
      <text
         xml:space="preserve"
         style="font-style:normal;font-variant:normal;font-weight:normal;font-stretch:normal;font-size:40px;line-height:1.25;font-family:'DejaVu Sans';-inkscape-font-specification:'DejaVu Sans';letter-spacing:0px;word-spacing:0px;fill:#000000;fill-opacity:1;stroke:none"
         x="566.46936"
         y="233.93648"
         id="text902-3-3-6-0"><tspan
           id="tspan900-6-5-2-9"
           x="566.46936"
           y="233.93648"
           style="font-style:normal;font-variant:normal;font-weight:bold;font-stretch:normal;font-size:18.6667px;font-family:Loma;-inkscape-font-specification:Loma"
           sodipodi:role="line">Short</tspan></text>
      <text
         xml:space="preserve"
         style="font-style:normal;font-variant:normal;font-weight:normal;font-stretch:normal;font-size:40px;line-height:1.25;font-family:'DejaVu Sans';-inkscape-font-specification:'DejaVu Sans';letter-spacing:0px;word-spacing:0px;fill:#000000;fill-opacity:1;stroke:none"
         x="364.78882"
         y="233.90884"
         id="text902-3-3-6-3"><tspan
           id="tspan900-6-5-2-6"
           x="364.78882"
           y="233.90884"
           style="font-style:normal;font-variant:normal;font-weight:bold;font-stretch:normal;font-size:18.6667px;font-family:Loma;-inkscape-font-specification:Loma"
           sodipodi:role="line">Tall</tspan></text>
      <text
         xml:space="preserve"
         style="font-style:normal;font-variant:normal;font-weight:normal;font-stretch:normal;font-size:40px;line-height:1.25;font-family:'DejaVu Sans';-inkscape-font-specification:'DejaVu Sans';letter-spacing:0px;word-spacing:0px;fill:#000000;fill-opacity:1;stroke:none"
         x="782.90839"
         y="233.91672"
         id="text902-3-3-6-3-0"><tspan
           id="tspan900-6-5-2-6-6"
           x="782.90839"
           y="233.91672"
           style="font-style:normal;font-variant:normal;font-weight:bold;font-stretch:normal;font-size:18.6667px;font-family:Loma;-inkscape-font-specification:Loma"
           sodipodi:role="line">Tall</tspan></text>
      <text
         xml:space="preserve"
         style="font-style:normal;font-weight:normal;font-size:17.3333px;line-height:1.25;font-family:sans-serif;fill:#000000;fill-opacity:1;stroke:none"
         x="221.42715"
         y="136.68382"
         id="text97"><tspan
           sodipodi:role="line"
           id="tspan95"
           x="221.42715"
           y="136.68382"
           style="font-size:17.3333px">weight: 1 kg</tspan></text>
      <text
         xml:space="preserve"
         style="font-style:normal;font-weight:normal;font-size:17.3333px;line-height:1.25;font-family:sans-serif;fill:#000000;fill-opacity:1;stroke:none"
         x="633.96399"
         y="136.68382"
         id="text97-3"><tspan
           sodipodi:role="line"
           id="tspan95-6"
           x="633.96399"
           y="136.68382"
           style="font-size:17.3333px">weight: 10 kg</tspan></text>
      <text
         xml:space="preserve"
         style="font-style:normal;font-weight:normal;font-size:17.3333px;line-height:1.25;font-family:sans-serif;fill:#000000;fill-opacity:1;stroke:none"
         x="120.93614"
         y="260.85016"
         id="text97-7"><tspan
           sodipodi:role="line"
           id="tspan95-5"
           x="120.93614"
           y="260.85016"
           style="font-size:17.3333px">height: 1 m</tspan></text>
      <text
         xml:space="preserve"
         style="font-style:normal;font-weight:normal;font-size:17.3333px;line-height:1.25;font-family:sans-serif;fill:#000000;fill-opacity:1;stroke:none"
         x="539.05573"
         y="260.85016"
         id="text97-7-3"><tspan
           sodipodi:role="line"
           id="tspan95-5-5"
           x="539.05573"
           y="260.85016"
           style="font-size:17.3333px">height: 1 m</tspan></text>
      <text
         xml:space="preserve"
         style="font-style:normal;font-weight:normal;font-size:17.3333px;line-height:1.25;font-family:sans-serif;fill:#000000;fill-opacity:1;stroke:none"
         x="322.74695"
         y="260.85016"
         id="text97-7-6"><tspan
           sodipodi:role="line"
           id="tspan95-5-2"
           x="322.74695"
           y="260.85016"
           style="font-size:17.3333px">height: 10 m</tspan></text>
      <text
         xml:space="preserve"
         style="font-style:normal;font-weight:normal;font-size:17.3333px;line-height:1.25;font-family:sans-serif;fill:#000000;fill-opacity:1;stroke:none"
         x="740.86658"
         y="260.85016"
         id="text97-7-6-9"><tspan
           sodipodi:role="line"
           id="tspan95-5-2-1"
           x="740.86658"
           y="260.85016"
           style="font-size:17.3333px">height: 10 m</tspan></text>
    </g>
  </g>
</svg>
